<svg xmlns="http://www.w3.org/2000/svg" viewBox="0 0 656.32 656.32"><defs><style>.cls-1{fill:#ccc;stroke:#fff;stroke-miterlimit:10;stroke-width:3px;}.cls-2{font-size:44px;font-family:DaysOne-Regular, Days One;}.cls-3{font-size:23px;}</style></defs><title>wheelmdpi</title><g id="Layer_2" data-name="Layer 2"><g id="Layer_2-2" data-name="Layer 2"><g id="Layer_3" data-name="Layer 3"><path class="cls-1" d="M328.16,328.16l76.64-317C463.11,25.25,509.6,50.59,553,92Z"/><path class="cls-1" d="M328.16,328.16,236,15.3C293.57-1.64,346.5-2.94,404.8,11.15Z"/><path class="cls-1" d="M328.16,328.16,92,103.28c41.36-43.44,86.55-71,144.08-88Z"/><path class="cls-1" d="M328.16,328.16l-317-76.64c14.1-58.3,39.44-104.8,80.8-148.24Z"/><path class="cls-1" d="M328.16,328.16,15.3,420.29C-1.64,362.75-2.94,309.82,11.15,251.52Z"/><path class="cls-1" d="M328.16,328.16,103.28,564.37c-43.44-41.35-71-86.54-88-144.08Z"/><path class="cls-1" d="M328.16,328.16l-76.64,317c-58.3-14.1-104.8-39.44-148.24-80.8Z"/><path class="cls-1" d="M328.16,328.16,420.29,641c-57.54,16.94-110.47,18.24-168.77,4.15Z"/><path class="cls-1" d="M328.16,328.16,564.37,553c-41.35,43.44-86.54,71-144.08,88Z"/><path class="cls-1" d="M328.16,328.16l317,76.64c-14.1,58.31-39.44,104.8-80.8,148.24Z"/><path class="cls-1" d="M328.16,328.16,641,236C658,293.57,659.26,346.5,645.17,404.8Z"/><path class="cls-1" d="M328.16,328.16,553,92c43.44,41.36,71,86.55,88,144.08Z"/><text class="cls-2" transform="translate(310.21 85.75) rotate(-0.96)">B</text><text class="cls-2" transform="translate(429 106.31) rotate(28.61)">C</text><text class="cls-2" transform="translate(517.77 173.33) rotate(58.3)">C#<tspan class="cls-3"><tspan x="13.37" y="27.6">/Db</tspan></tspan></text><text class="cls-2" transform="translate(570.32 307.12) rotate(88.3)">D</text><text class="cls-2" transform="translate(557.13 414.81) rotate(118.3)">D#<tspan class="cls-3"><tspan x="14.44" y="27.6">/Eb</tspan></tspan></text><text class="cls-2" transform="translate(465.29 528.75) rotate(148.5)">E</text><text class="cls-2" transform="translate(346.4 570.44) rotate(178.5)">F</text><text class="cls-2" transform="translate(238.6 555.73) rotate(-151.4)">F#<tspan class="cls-3"><tspan x="11.52" y="27.6">/Gb</tspan></tspan></text><text class="cls-2" transform="translate(127.94 465.99) rotate(-121.25)">G</text><text class="cls-2" transform="translate(86.12 364.95) rotate(-91.05)">G#<tspan class="cls-3"><tspan x="13.5" y="27.6">/Ab</tspan></tspan></text><text class="cls-2" transform="translate(109 223) rotate(-61.05)">A</text><text class="cls-2" transform="translate(175.18 136.99) rotate(-31.04)">A#<tspan class="cls-3"><tspan x="13.73" y="27.6">/Bb</tspan></tspan></text></g></g></g></svg>